<svg width="50" height="50" viewBox="0 0 50 50" fill="none" xmlns="http://www.w3.org/2000/svg">
<rect width="50" height="50" fill="white"/>
<path d="M21.186 20.12L16.974 32H13.338L9.108 20.12H12.366L14.544 27.302L15.192 29.642L15.822 27.338L18.036 20.12H21.186ZM21.7526 28.904C22.3166 28.904 22.7546 29.048 23.0666 29.336C23.3906 29.624 23.5526 30.026 23.5526 30.542C23.5526 31.046 23.3906 31.442 23.0666 31.73C22.7546 32.018 22.3166 32.162 21.7526 32.162C21.2006 32.162 20.7626 32.018 20.4386 31.73C20.1146 31.442 19.9526 31.046 19.9526 30.542C19.9526 30.026 20.1146 29.624 20.4386 29.336C20.7626 29.048 21.2006 28.904 21.7526 28.904ZM35.6975 28.598C35.4695 29.426 35.1035 30.11 34.5995 30.65C34.0955 31.178 33.4955 31.568 32.7995 31.82C32.1035 32.06 31.3355 32.18 30.4955 32.18C29.2955 32.18 28.2575 31.94 27.3815 31.46C26.5055 30.968 25.8335 30.266 25.3655 29.354C24.8975 28.442 24.6635 27.344 24.6635 26.06C24.6635 24.776 24.8975 23.678 25.3655 22.766C25.8335 21.854 26.5055 21.158 27.3815 20.678C28.2575 20.186 29.2895 19.94 30.4775 19.94C31.3055 19.94 32.0675 20.06 32.7635 20.3C33.4595 20.528 34.0475 20.882 34.5275 21.362C35.0075 21.842 35.3495 22.46 35.5535 23.216L32.8355 24.314C32.6675 23.57 32.3915 23.06 32.0075 22.784C31.6355 22.508 31.1615 22.37 30.5855 22.37C30.0215 22.37 29.5295 22.508 29.1095 22.784C28.7015 23.06 28.3835 23.474 28.1555 24.026C27.9395 24.566 27.8315 25.244 27.8315 26.06C27.8315 26.864 27.9335 27.542 28.1375 28.094C28.3415 28.646 28.6475 29.06 29.0555 29.336C29.4755 29.612 29.9915 29.75 30.6035 29.75C31.1795 29.75 31.6655 29.594 32.0615 29.282C32.4695 28.958 32.7455 28.466 32.8895 27.806L35.6975 28.598ZM38.6627 28.904C39.2267 28.904 39.6647 29.048 39.9767 29.336C40.3007 29.624 40.4627 30.026 40.4627 30.542C40.4627 31.046 40.3007 31.442 39.9767 31.73C39.6647 32.018 39.2267 32.162 38.6627 32.162C38.1107 32.162 37.6727 32.018 37.3487 31.73C37.0247 31.442 36.8627 31.046 36.8627 30.542C36.8627 30.026 37.0247 29.624 37.3487 29.336C37.6727 29.048 38.1107 28.904 38.6627 28.904Z" fill="black"/>
</svg>
