<svg width="83" height="17" viewBox="0 0 83 17" fill="none" xmlns="http://www.w3.org/2000/svg">
<path d="M16.1035 -0.000156879L10.4875 15.8398H5.63947L-0.000531249 -0.000156879H4.34347L7.24747 9.57584L8.11147 12.6958L8.95147 9.62384L11.9035 -0.000156879H16.1035ZM22.3583 10.1338C22.3583 9.71384 22.2383 9.38384 21.9983 9.14384C21.7703 8.89184 21.4583 8.76584 21.0623 8.76584C20.6663 8.76584 20.3243 8.86784 20.0363 9.07184C19.7603 9.26384 19.5683 9.61184 19.4603 10.1158L16.8683 9.50384C17.0363 8.63984 17.4803 7.94984 18.2003 7.43384C18.9203 6.91784 19.9343 6.65984 21.2423 6.65984C22.1183 6.65984 22.8623 6.79184 23.4743 7.05584C24.0983 7.30784 24.5723 7.69184 24.8963 8.20784C25.2323 8.71184 25.4003 9.33584 25.4003 10.0798V13.3738C25.4003 13.8418 25.6103 14.0758 26.0303 14.0758C26.2463 14.0758 26.4203 14.0518 26.5523 14.0038L26.3723 15.7498C26.0123 15.9178 25.5743 16.0018 25.0583 16.0018C24.5903 16.0018 24.1763 15.9298 23.8163 15.7858C23.4563 15.6298 23.1743 15.4018 22.9703 15.1018C22.7663 14.7898 22.6643 14.3998 22.6643 13.9318V13.8238L23.0063 13.6978C23.0063 14.2138 22.8503 14.6458 22.5383 14.9938C22.2383 15.3418 21.8423 15.5998 21.3503 15.7678C20.8703 15.9358 20.3663 16.0198 19.8383 16.0198C19.2263 16.0198 18.6923 15.9238 18.2363 15.7318C17.7803 15.5398 17.4263 15.2638 17.1743 14.9038C16.9343 14.5318 16.8143 14.0758 16.8143 13.5358C16.8143 12.8878 17.0063 12.3538 17.3903 11.9338C17.7863 11.5018 18.4043 11.2018 19.2443 11.0338L22.6463 10.3318L22.6283 11.9518L20.9003 12.3118C20.5403 12.3838 20.2703 12.4918 20.0903 12.6358C19.9223 12.7678 19.8383 12.9718 19.8383 13.2478C19.8383 13.5118 19.9343 13.7098 20.1263 13.8418C20.3183 13.9738 20.5463 14.0398 20.8103 14.0398C21.0143 14.0398 21.2063 14.0098 21.3863 13.9498C21.5783 13.8898 21.7463 13.7998 21.8903 13.6798C22.0343 13.5478 22.1483 13.3858 22.2323 13.1938C22.3163 13.0018 22.3583 12.7738 22.3583 12.5098V10.1338ZM30.7841 3.02384V12.7798C30.7841 13.1758 30.8501 13.4578 30.9821 13.6258C31.1141 13.7938 31.3361 13.8778 31.6481 13.8778C31.8281 13.8778 31.9781 13.8658 32.0981 13.8418C32.2181 13.8178 32.3621 13.7818 32.5301 13.7338L32.3321 15.5698C32.1161 15.7018 31.8341 15.8098 31.4861 15.8938C31.1381 15.9778 30.7961 16.0198 30.4601 16.0198C29.5001 16.0198 28.8041 15.7978 28.3721 15.3538C27.9401 14.9098 27.7241 14.1838 27.7241 13.1758V3.02384H30.7841ZM38.0408 16.0198C37.0448 16.0198 36.1808 15.8338 35.4488 15.4618C34.7288 15.0898 34.1708 14.5558 33.7748 13.8598C33.3788 13.1638 33.1808 12.3238 33.1808 11.3398C33.1808 10.3558 33.3788 9.51584 33.7748 8.81984C34.1708 8.12384 34.7228 7.58984 35.4308 7.21784C36.1508 6.84584 36.9728 6.65984 37.8968 6.65984C38.8448 6.65984 39.6488 6.84584 40.3088 7.21784C40.9808 7.57784 41.4908 8.08184 41.8388 8.72984C42.1868 9.36584 42.3608 10.0978 42.3608 10.9258C42.3608 11.1418 42.3548 11.3578 42.3428 11.5738C42.3308 11.7898 42.3128 11.9698 42.2888 12.1138H35.1608V10.4758H40.9388L39.4808 11.0338C39.4808 10.3138 39.3488 9.76184 39.0848 9.37784C38.8328 8.99384 38.4368 8.80184 37.8968 8.80184C37.5128 8.80184 37.1828 8.89184 36.9068 9.07184C36.6428 9.25184 36.4388 9.53384 36.2948 9.91784C36.1628 10.3018 36.0968 10.7938 36.0968 11.3938C36.0968 11.9818 36.1748 12.4618 36.3308 12.8338C36.4868 13.1938 36.7088 13.4578 36.9968 13.6258C37.2848 13.7818 37.6328 13.8598 38.0408 13.8598C38.4968 13.8598 38.8568 13.7698 39.1208 13.5898C39.3968 13.4098 39.6008 13.1578 39.7328 12.8338L42.1808 13.6438C42.0128 14.1598 41.7188 14.5978 41.2988 14.9578C40.8908 15.3058 40.3988 15.5698 39.8228 15.7498C39.2588 15.9298 38.6648 16.0198 38.0408 16.0198ZM44.0726 15.8398V6.83984H46.8086L46.9706 9.93584L46.6286 9.59384C46.7486 8.94584 46.9586 8.40584 47.2586 7.97384C47.5706 7.54184 47.9546 7.21784 48.4106 7.00184C48.8786 6.77384 49.4006 6.65984 49.9766 6.65984C50.6006 6.65984 51.1406 6.77984 51.5966 7.01984C52.0646 7.25984 52.4306 7.61384 52.6946 8.08184C52.9586 8.54984 53.0906 9.13784 53.0906 9.84584V15.8398H50.0306V10.6558C50.0306 10.0318 49.9106 9.59984 49.6706 9.35984C49.4306 9.11984 49.1246 8.99984 48.7526 8.99984C48.4646 8.99984 48.1946 9.07184 47.9426 9.21584C47.6906 9.34784 47.4926 9.56384 47.3486 9.86384C47.2046 10.1638 47.1326 10.5658 47.1326 11.0698V15.8398H44.0726ZM58.944 3.97784V12.6358C58.944 13.0678 59.046 13.3798 59.25 13.5718C59.466 13.7518 59.76 13.8418 60.132 13.8418C60.42 13.8418 60.666 13.8118 60.87 13.7518C61.086 13.6798 61.278 13.5778 61.446 13.4458L61.77 15.3358C61.47 15.5518 61.092 15.7198 60.636 15.8398C60.18 15.9598 59.712 16.0198 59.232 16.0198C58.548 16.0198 57.954 15.9238 57.45 15.7318C56.958 15.5398 56.574 15.2338 56.298 14.8138C56.034 14.3938 55.896 13.8358 55.884 13.1398V4.82384L58.944 3.97784ZM61.626 6.83984V9.01784H54.336V6.83984H61.626ZM64.5694 5.79584C63.9454 5.79584 63.4894 5.68184 63.2014 5.45384C62.9254 5.21384 62.7874 4.84184 62.7874 4.33784C62.7874 3.82184 62.9254 3.44984 63.2014 3.22184C63.4894 2.98184 63.9454 2.86184 64.5694 2.86184C65.1814 2.86184 65.6314 2.98184 65.9194 3.22184C66.2074 3.44984 66.3514 3.82184 66.3514 4.33784C66.3514 4.84184 66.2074 5.21384 65.9194 5.45384C65.6314 5.68184 65.1814 5.79584 64.5694 5.79584ZM66.0994 6.83984V15.8398H63.0394V6.83984H66.0994ZM68.2777 15.8398V6.83984H71.0137L71.1757 9.93584L70.8337 9.59384C70.9537 8.94584 71.1637 8.40584 71.4637 7.97384C71.7757 7.54184 72.1597 7.21784 72.6157 7.00184C73.0837 6.77384 73.6057 6.65984 74.1817 6.65984C74.8057 6.65984 75.3457 6.77984 75.8017 7.01984C76.2697 7.25984 76.6357 7.61384 76.8997 8.08184C77.1637 8.54984 77.2957 9.13784 77.2957 9.84584V15.8398H74.2357V10.6558C74.2357 10.0318 74.1157 9.59984 73.8757 9.35984C73.6357 9.11984 73.3297 8.99984 72.9577 8.99984C72.6697 8.99984 72.3997 9.07184 72.1477 9.21584C71.8957 9.34784 71.6977 9.56384 71.5537 9.86384C71.4097 10.1638 71.3377 10.5658 71.3377 11.0698V15.8398H68.2777ZM80.9518 12.7438C81.5158 12.7438 81.9538 12.8878 82.2658 13.1758C82.5898 13.4638 82.7518 13.8658 82.7518 14.3818C82.7518 14.8858 82.5898 15.2818 82.2658 15.5698C81.9538 15.8578 81.5158 16.0018 80.9518 16.0018C80.3998 16.0018 79.9618 15.8578 79.6378 15.5698C79.3138 15.2818 79.1518 14.8858 79.1518 14.3818C79.1518 13.8658 79.3138 13.4638 79.6378 13.1758C79.9618 12.8878 80.3998 12.7438 80.9518 12.7438Z" fill="white"/>
</svg>
