<svg width="81" height="14" viewBox="0 0 81 14" fill="none" xmlns="http://www.w3.org/2000/svg">
<path d="M13.4209 0.000194788L8.74086 13.2002H4.70086L0.000859376 0.000194788H3.62086L6.04086 7.9802L6.76086 10.5802L7.46086 8.0202L9.92086 0.000194788H13.4209ZM19.6532 7.4942C19.6532 7.07419 19.5332 6.74419 19.2932 6.5042C19.0652 6.2522 18.7532 6.1262 18.3572 6.1262C17.9612 6.1262 17.6192 6.2282 17.3312 6.4322C17.0552 6.6242 16.8632 6.9722 16.7552 7.47619L14.1632 6.86419C14.3312 6.00019 14.7752 5.31019 15.4952 4.7942C16.2152 4.27819 17.2292 4.02019 18.5372 4.02019C19.4132 4.02019 20.1572 4.15219 20.7692 4.41619C21.3932 4.6682 21.8672 5.0522 22.1912 5.56819C22.5272 6.07219 22.6952 6.69619 22.6952 7.44019V10.7342C22.6952 11.2022 22.9052 11.4362 23.3252 11.4362C23.5412 11.4362 23.7152 11.4122 23.8472 11.3642L23.6672 13.1102C23.3072 13.2782 22.8692 13.3622 22.3532 13.3622C21.8852 13.3622 21.4712 13.2902 21.1112 13.1462C20.7512 12.9902 20.4692 12.7622 20.2652 12.4622C20.0612 12.1502 19.9592 11.7602 19.9592 11.2922V11.1842L20.3012 11.0582C20.3012 11.5742 20.1452 12.0062 19.8332 12.3542C19.5332 12.7022 19.1372 12.9602 18.6452 13.1282C18.1652 13.2962 17.6612 13.3802 17.1332 13.3802C16.5212 13.3802 15.9872 13.2842 15.5312 13.0922C15.0752 12.9002 14.7212 12.6242 14.4692 12.2642C14.2292 11.8922 14.1092 11.4362 14.1092 10.8962C14.1092 10.2482 14.3012 9.7142 14.6852 9.2942C15.0812 8.8622 15.6992 8.56219 16.5392 8.39419L19.9412 7.69219L19.9232 9.3122L18.1952 9.6722C17.8352 9.7442 17.5652 9.8522 17.3852 9.9962C17.2172 10.1282 17.1332 10.3322 17.1332 10.6082C17.1332 10.8722 17.2292 11.0702 17.4212 11.2022C17.6132 11.3342 17.8412 11.4002 18.1052 11.4002C18.3092 11.4002 18.5012 11.3702 18.6812 11.3102C18.8732 11.2502 19.0412 11.1602 19.1852 11.0402C19.3292 10.9082 19.4432 10.7462 19.5272 10.5542C19.6112 10.3622 19.6532 10.1342 19.6532 9.8702V7.4942ZM28.079 0.384195V10.1402C28.079 10.5362 28.145 10.8182 28.277 10.9862C28.409 11.1542 28.631 11.2382 28.943 11.2382C29.123 11.2382 29.273 11.2262 29.393 11.2022C29.513 11.1782 29.657 11.1422 29.825 11.0942L29.627 12.9302C29.411 13.0622 29.129 13.1702 28.781 13.2542C28.433 13.3382 28.091 13.3802 27.755 13.3802C26.795 13.3802 26.099 13.1582 25.667 12.7142C25.235 12.2702 25.019 11.5442 25.019 10.5362V0.384195H28.079ZM35.3357 13.3802C34.3397 13.3802 33.4757 13.1942 32.7437 12.8222C32.0237 12.4502 31.4657 11.9162 31.0697 11.2202C30.6737 10.5242 30.4757 9.6842 30.4757 8.7002C30.4757 7.7162 30.6737 6.8762 31.0697 6.1802C31.4657 5.4842 32.0177 4.95019 32.7257 4.57819C33.4457 4.20619 34.2677 4.02019 35.1917 4.02019C36.1397 4.02019 36.9437 4.20619 37.6037 4.57819C38.2757 4.93819 38.7857 5.44219 39.1337 6.0902C39.4817 6.7262 39.6557 7.4582 39.6557 8.2862C39.6557 8.5022 39.6497 8.71819 39.6377 8.93419C39.6257 9.1502 39.6077 9.3302 39.5837 9.4742H32.4557V7.8362H38.2337L36.7757 8.39419C36.7757 7.67419 36.6437 7.12219 36.3797 6.73819C36.1277 6.35419 35.7317 6.16219 35.1917 6.16219C34.8077 6.16219 34.4777 6.25219 34.2017 6.4322C33.9377 6.61219 33.7337 6.89419 33.5897 7.27819C33.4577 7.66219 33.3917 8.1542 33.3917 8.7542C33.3917 9.3422 33.4697 9.8222 33.6257 10.1942C33.7817 10.5542 34.0037 10.8182 34.2917 10.9862C34.5797 11.1422 34.9277 11.2202 35.3357 11.2202C35.7917 11.2202 36.1517 11.1302 36.4157 10.9502C36.6917 10.7702 36.8957 10.5182 37.0277 10.1942L39.4757 11.0042C39.3077 11.5202 39.0137 11.9582 38.5937 12.3182C38.1857 12.6662 37.6937 12.9302 37.1177 13.1102C36.5537 13.2902 35.9597 13.3802 35.3357 13.3802ZM41.3675 13.2002V4.2002H44.1035L44.2655 7.2962L43.9235 6.9542C44.0435 6.3062 44.2535 5.76619 44.5535 5.3342C44.8655 4.9022 45.2495 4.57819 45.7055 4.36219C46.1735 4.13419 46.6955 4.02019 47.2715 4.02019C47.8955 4.02019 48.4355 4.14019 48.8915 4.3802C49.3595 4.62019 49.7255 4.97419 49.9895 5.44219C50.2535 5.91019 50.3855 6.4982 50.3855 7.2062V13.2002H47.3255V8.01619C47.3255 7.3922 47.2055 6.9602 46.9655 6.7202C46.7255 6.48019 46.4195 6.36019 46.0475 6.36019C45.7595 6.36019 45.4895 6.43219 45.2375 6.57619C44.9855 6.70819 44.7875 6.92419 44.6435 7.2242C44.4995 7.5242 44.4275 7.9262 44.4275 8.4302V13.2002H41.3675ZM56.2389 1.33819V9.9962C56.2389 10.4282 56.3409 10.7402 56.5449 10.9322C56.7609 11.1122 57.0549 11.2022 57.4269 11.2022C57.7149 11.2022 57.9609 11.1722 58.1649 11.1122C58.3809 11.0402 58.5729 10.9382 58.7409 10.8062L59.0649 12.6962C58.7649 12.9122 58.3869 13.0802 57.9309 13.2002C57.4749 13.3202 57.0069 13.3802 56.5269 13.3802C55.8429 13.3802 55.2489 13.2842 54.7449 13.0922C54.2529 12.9002 53.8689 12.5942 53.5929 12.1742C53.3289 11.7542 53.1909 11.1962 53.1789 10.5002V2.18419L56.2389 1.33819ZM58.9209 4.2002V6.3782H51.6309V4.2002H58.9209ZM61.8643 3.15619C61.2403 3.15619 60.7843 3.04219 60.4963 2.81419C60.2203 2.5742 60.0823 2.20219 60.0823 1.69819C60.0823 1.18219 60.2203 0.810195 60.4963 0.582195C60.7843 0.342195 61.2403 0.222195 61.8643 0.222195C62.4763 0.222195 62.9263 0.342195 63.2143 0.582195C63.5023 0.810195 63.6463 1.18219 63.6463 1.69819C63.6463 2.20219 63.5023 2.5742 63.2143 2.81419C62.9263 3.04219 62.4763 3.15619 61.8643 3.15619ZM63.3943 4.2002V13.2002H60.3343V4.2002H63.3943ZM65.5726 13.2002V4.2002H68.3086L68.4706 7.2962L68.1286 6.9542C68.2486 6.3062 68.4586 5.76619 68.7586 5.3342C69.0706 4.9022 69.4546 4.57819 69.9106 4.36219C70.3786 4.13419 70.9006 4.02019 71.4766 4.02019C72.1006 4.02019 72.6406 4.14019 73.0966 4.3802C73.5646 4.62019 73.9306 4.97419 74.1946 5.44219C74.4586 5.91019 74.5906 6.4982 74.5906 7.2062V13.2002H71.5306V8.01619C71.5306 7.3922 71.4106 6.9602 71.1706 6.7202C70.9306 6.48019 70.6246 6.36019 70.2526 6.36019C69.9646 6.36019 69.6946 6.43219 69.4426 6.57619C69.1906 6.70819 68.9926 6.92419 68.8486 7.2242C68.7046 7.5242 68.6326 7.9262 68.6326 8.4302V13.2002H65.5726ZM78.2467 10.1042C78.8107 10.1042 79.2487 10.2482 79.5607 10.5362C79.8847 10.8242 80.0467 11.2262 80.0467 11.7422C80.0467 12.2462 79.8847 12.6422 79.5607 12.9302C79.2487 13.2182 78.8107 13.3622 78.2467 13.3622C77.6947 13.3622 77.2567 13.2182 76.9327 12.9302C76.6087 12.6422 76.4467 12.2462 76.4467 11.7422C76.4467 11.2262 76.6087 10.8242 76.9327 10.5362C77.2567 10.2482 77.6947 10.1042 78.2467 10.1042Z" fill="white"/>
</svg>
