<svg width="78" height="14" viewBox="0 0 78 14" fill="none" xmlns="http://www.w3.org/2000/svg">
<path d="M12.0786 1.09803L7.86658 12.978H4.23058L0.000578126 1.09803H3.25858L5.43658 8.28003L6.08458 10.62L6.71458 8.31603L8.92858 1.09803H12.0786ZM17.2274 7.27203C17.2274 6.85203 17.1074 6.52203 16.8674 6.28203C16.6394 6.03003 16.3274 5.90403 15.9314 5.90403C15.5354 5.90403 15.1934 6.00603 14.9054 6.21003C14.6294 6.40203 14.4374 6.75003 14.3294 7.25403L11.7374 6.64203C11.9054 5.77803 12.3494 5.08803 13.0694 4.57203C13.7894 4.05603 14.8034 3.79803 16.1114 3.79803C16.9874 3.79803 17.7314 3.93003 18.3434 4.19403C18.9674 4.44603 19.4414 4.83003 19.7654 5.34603C20.1014 5.85003 20.2694 6.47403 20.2694 7.21803V10.512C20.2694 10.98 20.4794 11.214 20.8994 11.214C21.1154 11.214 21.2894 11.19 21.4214 11.142L21.2414 12.888C20.8814 13.056 20.4434 13.14 19.9274 13.14C19.4594 13.14 19.0454 13.068 18.6854 12.924C18.3254 12.768 18.0434 12.54 17.8394 12.24C17.6354 11.928 17.5334 11.538 17.5334 11.07V10.962L17.8754 10.836C17.8754 11.352 17.7194 11.784 17.4074 12.132C17.1074 12.48 16.7114 12.738 16.2194 12.906C15.7394 13.074 15.2354 13.158 14.7074 13.158C14.0954 13.158 13.5614 13.062 13.1054 12.87C12.6494 12.678 12.2954 12.402 12.0434 12.042C11.8034 11.67 11.6834 11.214 11.6834 10.674C11.6834 10.026 11.8754 9.49203 12.2594 9.07203C12.6554 8.64003 13.2734 8.34003 14.1134 8.17203L17.5154 7.47003L17.4974 9.09003L15.7694 9.45003C15.4094 9.52203 15.1394 9.63003 14.9594 9.77403C14.7914 9.90603 14.7074 10.11 14.7074 10.386C14.7074 10.65 14.8034 10.848 14.9954 10.98C15.1874 11.112 15.4154 11.178 15.6794 11.178C15.8834 11.178 16.0754 11.148 16.2554 11.088C16.4474 11.028 16.6154 10.938 16.7594 10.818C16.9034 10.686 17.0174 10.524 17.1014 10.332C17.1854 10.14 17.2274 9.91203 17.2274 9.64803V7.27203ZM25.6533 0.162027V9.91803C25.6533 10.314 25.7193 10.596 25.8513 10.764C25.9833 10.932 26.2053 11.016 26.5173 11.016C26.6973 11.016 26.8473 11.004 26.9673 10.98C27.0873 10.956 27.2313 10.92 27.3993 10.872L27.2013 12.708C26.9853 12.84 26.7033 12.948 26.3553 13.032C26.0073 13.116 25.6653 13.158 25.3293 13.158C24.3693 13.158 23.6733 12.936 23.2413 12.492C22.8093 12.048 22.5933 11.322 22.5933 10.314V0.162027H25.6533ZM32.9099 13.158C31.9139 13.158 31.0499 12.972 30.3179 12.6C29.5979 12.228 29.0399 11.694 28.6439 10.998C28.2479 10.302 28.0499 9.46203 28.0499 8.47803C28.0499 7.49403 28.2479 6.65403 28.6439 5.95803C29.0399 5.26203 29.5919 4.72803 30.2999 4.35603C31.0199 3.98403 31.8419 3.79803 32.7659 3.79803C33.7139 3.79803 34.5179 3.98403 35.1779 4.35603C35.8499 4.71603 36.3599 5.22003 36.7079 5.86803C37.0559 6.50403 37.2299 7.23603 37.2299 8.06403C37.2299 8.28003 37.2239 8.49603 37.2119 8.71203C37.1999 8.92803 37.1819 9.10803 37.1579 9.25203H30.0299V7.61403H35.8079L34.3499 8.17203C34.3499 7.45203 34.2179 6.90003 33.9539 6.51603C33.7019 6.13203 33.3059 5.94003 32.7659 5.94003C32.3819 5.94003 32.0519 6.03003 31.7759 6.21003C31.5119 6.39003 31.3079 6.67203 31.1639 7.05603C31.0319 7.44003 30.9659 7.93203 30.9659 8.53203C30.9659 9.12003 31.0439 9.60003 31.1999 9.97203C31.3559 10.332 31.5779 10.596 31.8659 10.764C32.1539 10.92 32.5019 10.998 32.9099 10.998C33.3659 10.998 33.7259 10.908 33.9899 10.728C34.2659 10.548 34.4699 10.296 34.6019 9.97203L37.0499 10.782C36.8819 11.298 36.5879 11.736 36.1679 12.096C35.7599 12.444 35.2679 12.708 34.6919 12.888C34.1279 13.068 33.5339 13.158 32.9099 13.158ZM38.9418 12.978V3.97803H41.6778L41.8398 7.07403L41.4978 6.73203C41.6178 6.08403 41.8278 5.54403 42.1278 5.11203C42.4398 4.68003 42.8238 4.35603 43.2798 4.14003C43.7478 3.91203 44.2698 3.79803 44.8458 3.79803C45.4698 3.79803 46.0098 3.91803 46.4658 4.15803C46.9338 4.39803 47.2998 4.75203 47.5638 5.22003C47.8278 5.68803 47.9598 6.27603 47.9598 6.98403V12.978H44.8998V7.79403C44.8998 7.17003 44.7798 6.73803 44.5398 6.49803C44.2998 6.25803 43.9938 6.13803 43.6218 6.13803C43.3338 6.13803 43.0638 6.21003 42.8118 6.35403C42.5598 6.48603 42.3618 6.70203 42.2178 7.00203C42.0738 7.30203 42.0018 7.70403 42.0018 8.20803V12.978H38.9418ZM53.8131 1.11603V9.77403C53.8131 10.206 53.9151 10.518 54.1191 10.71C54.3351 10.89 54.6291 10.98 55.0011 10.98C55.2891 10.98 55.5351 10.95 55.7391 10.89C55.9551 10.818 56.1471 10.716 56.3151 10.584L56.6391 12.474C56.3391 12.69 55.9611 12.858 55.5051 12.978C55.0491 13.098 54.5811 13.158 54.1011 13.158C53.4171 13.158 52.8231 13.062 52.3191 12.87C51.8271 12.678 51.4431 12.372 51.1671 11.952C50.9031 11.532 50.7651 10.974 50.7531 10.278V1.96203L53.8131 1.11603ZM56.4951 3.97803V6.15603H49.2051V3.97803H56.4951ZM59.4385 2.93403C58.8145 2.93403 58.3585 2.82003 58.0705 2.59203C57.7945 2.35203 57.6565 1.98003 57.6565 1.47603C57.6565 0.960027 57.7945 0.588027 58.0705 0.360027C58.3585 0.120027 58.8145 2.70605e-05 59.4385 2.70605e-05C60.0505 2.70605e-05 60.5005 0.120027 60.7885 0.360027C61.0765 0.588027 61.2205 0.960027 61.2205 1.47603C61.2205 1.98003 61.0765 2.35203 60.7885 2.59203C60.5005 2.82003 60.0505 2.93403 59.4385 2.93403ZM60.9685 3.97803V12.978H57.9085V3.97803H60.9685ZM63.1468 12.978V3.97803H65.8828L66.0448 7.07403L65.7028 6.73203C65.8228 6.08403 66.0328 5.54403 66.3328 5.11203C66.6448 4.68003 67.0288 4.35603 67.4848 4.14003C67.9528 3.91203 68.4748 3.79803 69.0508 3.79803C69.6748 3.79803 70.2148 3.91803 70.6708 4.15803C71.1388 4.39803 71.5048 4.75203 71.7688 5.22003C72.0328 5.68803 72.1648 6.27603 72.1648 6.98403V12.978H69.1048V7.79403C69.1048 7.17003 68.9848 6.73803 68.7448 6.49803C68.5048 6.25803 68.1988 6.13803 67.8268 6.13803C67.5388 6.13803 67.2688 6.21003 67.0168 6.35403C66.7648 6.48603 66.5668 6.70203 66.4228 7.00203C66.2788 7.30203 66.2068 7.70403 66.2068 8.20803V12.978H63.1468ZM75.8209 9.88203C76.3849 9.88203 76.8229 10.026 77.1349 10.314C77.4589 10.602 77.6209 11.004 77.6209 11.52C77.6209 12.024 77.4589 12.42 77.1349 12.708C76.8229 12.996 76.3849 13.14 75.8209 13.14C75.2689 13.14 74.8309 12.996 74.5069 12.708C74.1829 12.42 74.0209 12.024 74.0209 11.52C74.0209 11.004 74.1829 10.602 74.5069 10.314C74.8309 10.026 75.2689 9.88203 75.8209 9.88203Z" fill="black"/>
</svg>
